<svg width="39" height="39" viewBox="0 0 39 39" fill="none" xmlns="http://www.w3.org/2000/svg">
<path d="M12.0799 12.7492L18.4531 18.7361C18.6452 18.9166 18.7413 19.0069 18.8507 19.0411C18.948 19.0716 19.0522 19.0716 19.1494 19.0411C19.2589 19.0069 19.3549 18.9166 19.5471 18.7361L25.9203 12.7492C27.7135 11.0647 27.9312 8.29268 26.4231 6.34886L26.1395 5.98336C24.3353 3.65799 20.7139 4.04797 19.4462 6.70414C19.2671 7.07934 18.733 7.07934 18.554 6.70414C17.2863 4.04797 13.6648 3.65799 11.8607 5.98336L11.5771 6.34886C10.069 8.29268 10.2867 11.0647 12.0799 12.7492Z" fill="#1A1E27" stroke="#1A1E27" stroke-width="2"/>
<path d="M6.16895 28.0615V28.5664C6.1582 29.1895 6.1582 30.1455 5.92188 31.3916L5.07324 31.3271C5.3042 30.1831 5.32568 29.3721 5.3418 28.7705H1.41016V28.0615H6.16895ZM3.70898 30.1777V32.2295C4.76709 32.1865 5.86279 32.1113 6.85645 31.9717L6.91016 32.5947C4.91211 32.9385 2.60254 32.9814 0.905273 32.9814L0.819336 32.2832C1.43701 32.2778 2.13525 32.2725 2.87109 32.251V30.1777H3.70898ZM8.36035 27.3203V30.4355H9.75684V31.1553H8.36035V34.5068H7.50098V27.3203H8.36035ZM8.67188 35.957V36.666H2.29102V33.8623H3.13965V35.957H8.67188ZM18.2646 27.3311V32.7559H17.4268V27.3311H18.2646ZM18.2646 33.3037V36.7412H12.0557V33.3037H18.2646ZM12.8828 33.9912V36.0537H17.4375V33.9912H12.8828ZM13.7637 28.6416C13.7529 29.9951 14.7842 31.1875 16.1914 31.6816L15.7617 32.3262C14.6553 31.9448 13.7744 31.1392 13.3447 30.0918C12.9204 31.209 12.0288 32.0898 10.8848 32.5088L10.4551 31.8428C11.9053 31.3379 12.9043 30.0488 12.9043 28.6416V27.707H13.7637V28.6416ZM28.04 27.3203V36.8701H27.2129V31.9287H25.8379V36.376H25.043V27.5352H25.8379V31.209H27.2129V27.3203H28.04ZM21.208 28.4912V33.6475C22.1587 33.6367 23.1685 33.5723 24.334 33.3359L24.4414 34.0879C23.1094 34.3242 22.0137 34.3994 20.9609 34.3994H20.3701V28.4912H21.208ZM37.3105 33.4756V36.8701H36.4619V34.1523H30.8867V33.4756H37.3105ZM37.3105 27.3203V32.9492H36.4619V31.5742H34.002C33.5562 32.1167 32.8525 32.439 32.0254 32.4336C30.5967 32.4443 29.5439 31.499 29.5439 30.1455C29.5439 28.8135 30.5967 27.8682 32.0254 27.8682C32.8472 27.8682 33.5508 28.1904 34.002 28.7275H36.4619V27.3203H37.3105ZM32.0254 28.5879C31.0479 28.5879 30.3496 29.2432 30.3496 30.1455C30.3496 31.0801 31.0479 31.7246 32.0254 31.7246C32.96 31.7246 33.6797 31.0801 33.6797 30.1455C33.6797 29.2432 32.96 28.5879 32.0254 28.5879ZM34.3779 30.876H36.4619V29.4258H34.3779C34.4531 29.6514 34.4961 29.8877 34.4961 30.1455C34.4961 30.4033 34.4531 30.6504 34.3779 30.876Z" fill="#1A1E27"/>
</svg>
