<svg width="24" height="40" viewBox="0 0 24 40" fill="none" xmlns="http://www.w3.org/2000/svg">
<path fill-rule="evenodd" clip-rule="evenodd" d="M5.27446 10.1262C5 10.7229 5 11.4018 5 12.7595V16.9999C5 18.8856 5 19.8284 5.58579 20.4142C6.11733 20.9457 6.94285 20.9949 8.5 20.9995V16C8.5 14.8954 9.39543 14 10.5 14H13.5C14.6046 14 15.5 14.8954 15.5 16V20.9995C17.0572 20.9949 17.8827 20.9457 18.4142 20.4142C19 19.8284 19 18.8856 19 16.9999V12.7595C19 11.4018 19 10.7229 18.7255 10.1262C18.4511 9.52943 17.9356 9.08763 16.9047 8.20401L15.9047 7.34687C14.0414 5.74974 13.1098 4.95117 12 4.95117C10.8902 4.95117 9.95857 5.74974 8.09525 7.34687L7.09525 8.20401C6.06437 9.08763 5.54892 9.52943 5.27446 10.1262ZM13.5 20.9999V16H10.5V20.9999H13.5Z" fill="#1A1E27" fill-opacity="0.886275"/>
<path d="M15.271 35.0127V37.7412H8.69678V35.0127H15.271ZM9.53467 35.668V37.0859H14.4438V35.668H9.53467ZM15.8296 29.126V29.7812H8.08447V29.126H11.5649V28.1807H12.4028V29.126H15.8296ZM11.9839 30.168C13.9604 30.1787 15.0776 30.6299 15.0776 31.5215C15.0776 32.3594 14.1162 32.8052 12.4028 32.8643V33.6055H16.3345V34.2822H7.6333V33.6055H11.5649V32.8643C9.84619 32.8052 8.87939 32.3594 8.87939 31.5215C8.87939 30.6299 10.0073 30.1787 11.9839 30.168ZM11.9839 30.7588C10.5767 30.7695 9.771 31.0273 9.78174 31.5215C9.771 32.0049 10.5767 32.2842 11.9839 32.2842C13.3804 32.2842 14.186 32.0049 14.186 31.5215C14.186 31.0273 13.3804 30.7695 11.9839 30.7588Z" fill="#1A1E27"/>
</svg>
