<svg width="23" height="39" viewBox="0 0 23 39" fill="none" xmlns="http://www.w3.org/2000/svg">
<path fill-rule="evenodd" clip-rule="evenodd" d="M18.5206 5.53702C19.1666 6.50388 19.1666 7.84982 19.1666 10.5417C19.1666 13.2336 19.1666 14.5795 18.5206 15.5464C18.2409 15.965 17.8815 16.3243 17.4629 16.604C16.4961 17.25 15.1501 17.25 12.4583 17.25H10.5416L9.21903 19.3661C8.77986 20.0688 7.72566 19.9631 7.43471 19.1873L6.70825 17.25L6.64276 17.0535C6.21084 16.9579 5.85354 16.8156 5.5369 16.604C5.11834 16.3243 4.75896 15.965 4.47929 15.5464C3.83325 14.5795 3.83325 13.2336 3.83325 10.5417C3.83325 7.84982 3.83325 6.50388 4.47929 5.53702C4.75896 5.11846 5.11834 4.75908 5.5369 4.47941C6.50376 3.83337 7.8497 3.83337 10.5416 3.83337H12.4583C15.1501 3.83337 16.4961 3.83337 17.4629 4.47941C17.8815 4.75908 18.2409 5.11846 18.5206 5.53702Z" fill="#1A1E27"/>
<path d="M18.5206 5.53702L18.9363 5.25924L18.9363 5.25924L18.5206 5.53702ZM18.5206 15.5464L18.9363 15.8242L18.9363 15.8242L18.5206 15.5464ZM17.4629 16.604L17.7407 17.0197L17.7407 17.0197L17.4629 16.604ZM10.5416 17.25V16.75C10.3692 16.75 10.209 16.8389 10.1176 16.985L10.5416 17.25ZM9.21903 19.3661L9.64303 19.6311L9.64303 19.6311L9.21903 19.3661ZM7.43471 19.1873L7.90287 19.0117L7.90287 19.0117L7.43471 19.1873ZM6.70825 17.25L6.23391 17.4082C6.23586 17.414 6.23792 17.4198 6.24009 17.4256L6.70825 17.25ZM6.64276 17.0535L7.1171 16.8954C7.06152 16.7287 6.92249 16.6034 6.7509 16.5654L6.64276 17.0535ZM5.5369 16.604L5.81468 16.1883L5.81468 16.1883L5.5369 16.604ZM4.47929 15.5464L4.06355 15.8242L4.06355 15.8242L4.47929 15.5464ZM4.47929 5.53702L4.06355 5.25924L4.06355 5.25924L4.47929 5.53702ZM5.5369 4.47941L5.25911 4.06367L5.25911 4.06367L5.5369 4.47941ZM17.4629 4.47941L17.7407 4.06367L17.7407 4.06367L17.4629 4.47941ZM19.6666 10.5417C19.6666 9.20617 19.6672 8.16688 19.5833 7.34188C19.4985 6.50851 19.3233 5.83851 18.9363 5.25924L18.1048 5.81481C18.3638 6.20239 18.5117 6.68879 18.5884 7.44308C18.666 8.20573 18.6666 9.18536 18.6666 10.5417H19.6666ZM18.9363 15.8242C19.3233 15.2449 19.4985 14.5749 19.5833 13.7415C19.6672 12.9165 19.6666 11.8772 19.6666 10.5417H18.6666C18.6666 11.8981 18.666 12.8777 18.5884 13.6403C18.5117 14.3946 18.3638 14.881 18.1048 15.2686L18.9363 15.8242ZM17.7407 17.0197C18.2139 16.7036 18.6201 16.2973 18.9363 15.8242L18.1048 15.2686C17.8616 15.6326 17.5491 15.9451 17.1852 16.1883L17.7407 17.0197ZM12.4583 17.75C13.7938 17.75 14.8331 17.7506 15.6581 17.6667C16.4914 17.5819 17.1614 17.4068 17.7407 17.0197L17.1852 16.1883C16.7976 16.4472 16.3112 16.5951 15.5569 16.6719C14.7942 16.7494 13.8146 16.75 12.4583 16.75V17.75ZM10.5416 17.75H12.4583V16.75H10.5416V17.75ZM9.64303 19.6311L10.9656 17.515L10.1176 16.985L8.79503 19.1011L9.64303 19.6311ZM6.96654 19.3628C7.40297 20.5266 8.98428 20.6851 9.64303 19.6311L8.79503 19.1011C8.57545 19.4525 8.04834 19.3996 7.90287 19.0117L6.96654 19.3628ZM6.24009 17.4256L6.96654 19.3628L7.90287 19.0117L7.17642 17.0745L6.24009 17.4256ZM6.16841 17.2117L6.23391 17.4082L7.18259 17.0919L7.1171 16.8954L6.16841 17.2117ZM5.25911 17.0197C5.63758 17.2726 6.05548 17.4356 6.53461 17.5417L6.7509 16.5654C6.36619 16.4802 6.0695 16.3585 5.81468 16.1883L5.25911 17.0197ZM4.06355 15.8242C4.3797 16.2973 4.78596 16.7036 5.25911 17.0197L5.81468 16.1883C5.45072 15.9451 5.13821 15.6326 4.89502 15.2686L4.06355 15.8242ZM3.33325 10.5417C3.33325 11.8772 3.33265 12.9165 3.41657 13.7415C3.50135 14.5749 3.67649 15.2449 4.06355 15.8242L4.89502 15.2686C4.63605 14.881 4.48817 14.3946 4.41144 13.6403C4.33386 12.8777 4.33325 11.8981 4.33325 10.5417H3.33325ZM4.06355 5.25924C3.67649 5.83851 3.50135 6.50851 3.41657 7.34188C3.33265 8.16688 3.33325 9.20617 3.33325 10.5417H4.33325C4.33325 9.18536 4.33386 8.20573 4.41144 7.44308C4.48817 6.68879 4.63605 6.20239 4.89502 5.81481L4.06355 5.25924ZM5.25911 4.06367C4.78596 4.37983 4.3797 4.78608 4.06355 5.25924L4.89502 5.81481C5.13821 5.45084 5.45072 5.13834 5.81468 4.89514L5.25911 4.06367ZM10.5416 3.33337C9.20605 3.33337 8.16676 3.33277 7.34175 3.4167C6.50839 3.50147 5.83839 3.67661 5.25911 4.06367L5.81468 4.89514C6.20226 4.63617 6.68866 4.48829 7.44296 4.41156C8.20561 4.33398 9.18524 4.33337 10.5416 4.33337V3.33337ZM12.4583 3.33337H10.5416V4.33337H12.4583V3.33337ZM17.7407 4.06367C17.1614 3.67661 16.4914 3.50147 15.6581 3.4167C14.8331 3.33277 13.7938 3.33337 12.4583 3.33337V4.33337C13.8146 4.33337 14.7942 4.33398 15.5569 4.41156C16.3112 4.48829 16.7976 4.63617 17.1852 4.89514L17.7407 4.06367ZM18.9363 5.25924C18.6201 4.78608 18.2139 4.37983 17.7407 4.06367L17.1852 4.89514C17.5491 5.13834 17.8616 5.45084 18.1048 5.81481L18.9363 5.25924Z" fill="#1A1E27"/>
<ellipse cx="15.3333" cy="10.5417" rx="0.958333" ry="0.958333" fill="white"/>
<circle cx="11.5001" cy="10.5417" r="0.958333" fill="white"/>
<ellipse cx="7.66658" cy="10.5417" rx="0.958333" ry="0.958333" fill="white"/>
<path d="M4.67285 30.2529C4.67285 31.7783 5.45703 33.3467 6.76758 34.0449L6.27344 34.6787C5.32275 34.1577 4.63525 33.1802 4.28613 32.0254C3.94238 33.25 3.26025 34.3135 2.30957 34.8721L1.80469 34.249C3.09375 33.4971 3.86719 31.832 3.87793 30.2529V29.8125H2.03027V29.1143H3.87793V27.6748H4.68359V29.1143H6.50977V29.8125H4.67285V30.2529ZM10.0869 27.3203V36.8701H9.27051V31.9072H7.9707V36.3867H7.16504V27.5244H7.9707V31.1875H9.27051V27.3203H10.0869ZM16.5215 28.0293V28.7168H12.7939V29.9199H16.2529V30.6074H12.7939V31.8643C14.8296 31.8643 15.9575 31.8267 17.3057 31.6064L17.3916 32.2939C15.9951 32.5195 14.8242 32.5625 12.7188 32.5625H11.9453V28.0293H16.5215ZM19.2715 27.3311V33.25H18.4336V27.3311H19.2715ZM16.1025 33.3896C18.0898 33.3789 19.3145 34.0127 19.3145 35.1084C19.3145 36.2256 18.0898 36.8486 16.1025 36.8486C14.0723 36.8486 12.8691 36.2256 12.8691 35.1084C12.8691 34.0127 14.0723 33.3789 16.1025 33.3896ZM16.1025 34.0557C14.5986 34.0557 13.707 34.4531 13.707 35.1084C13.707 35.7852 14.5986 36.1826 16.1025 36.1826C17.5635 36.1826 18.4873 35.7852 18.4873 35.1084C18.4873 34.4531 17.5635 34.0557 16.1025 34.0557Z" fill="#1A1E27"/>
</svg>
