<svg width="48" height="39" viewBox="0 0 48 39" fill="none" xmlns="http://www.w3.org/2000/svg">
<path d="M27.8334 7.66671C27.8334 9.50766 26.341 11 24.5001 11C22.6591 11 21.1667 9.50766 21.1667 7.66671C21.1667 5.82576 22.6591 4.33337 24.5001 4.33337C26.341 4.33337 27.8334 5.82576 27.8334 7.66671Z" fill="#1A1E27" stroke="#1A1E27" stroke-linecap="round"/>
<path d="M17.606 16.3972C18.2076 14.0426 20.6439 12.9375 23.0742 12.9375H25.9258C28.3561 12.9375 30.7924 14.0426 31.394 16.3972C31.4973 16.8017 31.5803 17.2337 31.6313 17.689C31.6929 18.2379 31.2398 18.6875 30.6875 18.6875H18.3125C17.7602 18.6875 17.3071 18.2379 17.3687 17.689C17.4197 17.2337 17.5027 16.8017 17.606 16.3972Z" fill="#1A1E27" stroke="#1A1E27" stroke-linecap="round"/>
<path d="M5.42139 28.2871V34.4424H1.01709V28.2871H5.42139ZM1.8335 28.9639V33.7549H4.5835V28.9639H1.8335ZM8.01025 27.3203V31.1338H9.61084V31.8643H8.01025V36.8701H7.17236V27.3203H8.01025ZM18.0005 27.3203V36.8916H17.1519V27.3203H18.0005ZM12.9194 28.0615C14.3374 28.0723 15.3579 29.3613 15.3579 31.3916C15.3579 33.4219 14.3374 34.7109 12.9194 34.7109C11.4907 34.7109 10.481 33.4219 10.481 31.3916C10.481 29.3613 11.4907 28.0723 12.9194 28.0615ZM12.9194 28.8135C11.9634 28.8242 11.2974 29.834 11.2974 31.3916C11.2974 32.9492 11.9634 33.959 12.9194 33.959C13.8755 33.959 14.5415 32.9492 14.5415 31.3916C14.5415 29.834 13.8755 28.8242 12.9194 28.8135ZM27.8511 27.3203V36.8701H27.0347V27.3203H27.8511ZM25.9819 27.5566V36.3652H25.1763V31.7139H23.8442V30.9512H25.1763V27.5566H25.9819ZM24.1235 28.5449V29.2432H23.3179V33.6582C23.6777 33.6367 24.0215 33.6045 24.3384 33.5615L24.3921 34.1846C22.8882 34.4639 20.8794 34.5068 19.6333 34.5068L19.5259 33.7871L20.5356 33.7764V29.2432H19.73V28.5449H24.1235ZM21.3091 33.7656C21.7065 33.7549 22.1255 33.7388 22.5337 33.7119V29.2432H21.3091V33.7656ZM37.0142 27.3203V36.8916H36.1655V27.3203H37.0142ZM31.9331 28.0615C33.3511 28.0723 34.3716 29.3613 34.3716 31.3916C34.3716 33.4219 33.3511 34.7109 31.9331 34.7109C30.5044 34.7109 29.4946 33.4219 29.4946 31.3916C29.4946 29.3613 30.5044 28.0723 31.9331 28.0615ZM31.9331 28.8135C30.9771 28.8242 30.311 29.834 30.311 31.3916C30.311 32.9492 30.9771 33.959 31.9331 33.959C32.8892 33.959 33.5552 32.9492 33.5552 31.3916C33.5552 29.834 32.8892 28.8242 31.9331 28.8135ZM42.063 30.2529C42.063 31.875 43.2446 33.5186 44.6519 34.1309L44.1792 34.7969C43.062 34.2866 42.0952 33.1855 41.6548 31.8643C41.2036 33.2661 40.2422 34.4854 39.1519 35.0332L38.647 34.3672C40.0112 33.7119 41.2036 31.9072 41.2144 30.2529V29.0068H38.9585V28.3086H44.3403V29.0068H42.063V30.2529ZM46.521 27.3203V36.8701H45.6724V27.3203H46.521Z" fill="#1A1E27"/>
</svg>
