<svg width="23" height="23" viewBox="0 0 23 23" fill="none" xmlns="http://www.w3.org/2000/svg">
<path d="M6.17918 8.5957C6.48043 5.88448 8.7721 3.83334 11.5 3.83334V3.83334C14.2279 3.83334 16.5196 5.88448 16.8208 8.5957L17.0621 10.7675C17.1859 11.8816 17.5486 12.9559 18.1253 13.9172L18.6792 14.8404C19.1479 15.6215 19.3822 16.012 19.3553 16.3334C19.331 16.6247 19.1803 16.8908 18.943 17.0616C18.6813 17.25 18.2258 17.25 17.3149 17.25H5.68506C4.77416 17.25 4.31872 17.25 4.05699 17.0616C3.8197 16.8908 3.66905 16.6247 3.64467 16.3334C3.61779 16.012 3.85211 15.6215 4.32076 14.8404L4.87471 13.9172C5.45145 12.9559 5.81408 11.8816 5.93787 10.7675L6.17918 8.5957Z" stroke="#33373F"/>
<path d="M8.72296 17.639C8.88677 18.3522 9.24771 18.9824 9.74981 19.4319C10.2519 19.8814 10.8671 20.125 11.5 20.125C12.1329 20.125 12.7481 19.8814 13.2502 19.4319C13.7523 18.9824 14.1132 18.3522 14.277 17.639" stroke="#33373F" stroke-linecap="round"/>
<circle cx="19.5" cy="2.5" r="1.5" fill="#3897F0" fill-opacity="0.99"/>
</svg>
