<svg width="23" height="40" viewBox="0 0 23 40" fill="none" xmlns="http://www.w3.org/2000/svg">
<g clip-path="url(#clip0_176_1195)">
<path fill-rule="evenodd" clip-rule="evenodd" d="M19.5433 6.7039C20 7.80653 20 9.20435 20 12C20 14.7956 20 16.1935 19.5433 17.2961C18.9343 18.7663 17.7663 19.9343 16.2961 20.5433C15.1935 21 13.7956 21 11 21H8C5.17157 21 3.75736 21 2.87868 20.1213C2 19.2426 2 17.8284 2 15V12C2 9.20435 2 7.80653 2.45672 6.7039C3.06569 5.23373 4.23373 4.06569 5.7039 3.45672C6.80653 3 8.20435 3 11 3C13.7956 3 15.1935 3 16.2961 3.45672C17.7663 4.06569 18.9343 5.23373 19.5433 6.7039ZM11 8.00014C11.5523 8.00014 12 8.44786 12 9.00014V10.9997H14C14.5523 10.9997 15 11.4474 15 11.9997C15 12.5519 14.5523 12.9997 14 12.9997H12V15.0001C12 15.5524 11.5523 16.0001 11 16.0001C10.4477 16.0001 10 15.5524 10 15.0001V12.9997H8C7.44772 12.9997 7 12.5519 7 11.9997C7 11.4474 7.44772 10.9997 8 10.9997H10V9.00014C10 8.44786 10.4477 8.00014 11 8.00014Z" fill="#1A1E27"/>
</g>
<path d="M10.5918 32.8643V33.5732H1.87988V32.8643H10.5918ZM9.57129 31.2637V31.9512H2.98633V28.707H9.50684V29.416H3.81348V31.2637H9.57129ZM6.23047 34.4111C8.28223 34.4111 9.50684 35.0342 9.51758 36.1299C9.50684 37.2363 8.28223 37.8486 6.23047 37.8486C4.16797 37.8486 2.93262 37.2363 2.93262 36.1299C2.93262 35.0342 4.16797 34.4111 6.23047 34.4111ZM6.23047 35.0664C4.69434 35.0771 3.78125 35.4639 3.79199 36.1299C3.78125 36.8066 4.69434 37.1826 6.23047 37.1826C7.74512 37.1826 8.66895 36.8066 8.66895 36.1299C8.66895 35.4639 7.74512 35.0771 6.23047 35.0664ZM20.1201 33.584V34.2822H11.376V33.584H15.3291V32.5742H12.5146V30.2432H18.1436V29.2549H12.4824V28.5674H18.9922V30.877H13.3525V31.8975H19.1963V32.5742H16.1562V33.584H20.1201ZM19.0459 35.0127V37.7842H18.1973V35.7002H12.3535V35.0127H19.0459Z" fill="#1A1E27"/>
<defs>
<clipPath id="clip0_176_1195">
<rect width="23" height="23" fill="white"/>
</clipPath>
</defs>
</svg>
