<svg width="20" height="20" viewBox="0 0 20 20" fill="none" xmlns="http://www.w3.org/2000/svg">
<path d="M10.7292 4.16666V4.16666C8.33547 4.16666 7.13862 4.16666 6.23795 4.66238C5.57414 5.02773 5.02776 5.57411 4.66241 6.23792C4.16669 7.13858 4.16669 8.33544 4.16669 10.7292V13.8333C4.16669 14.7761 4.16669 15.2475 4.45958 15.5404C4.75247 15.8333 5.22388 15.8333 6.16669 15.8333H9.27085C11.6646 15.8333 12.8614 15.8333 13.7621 15.3376C14.4259 14.9722 14.9723 14.4259 15.3376 13.7621C15.8334 12.8614 15.8334 11.6645 15.8334 9.27082V9.27082" stroke="#222222"/>
<path d="M7.5 8.33334L12.5 8.33334" stroke="#222222" stroke-linecap="round" stroke-linejoin="round"/>
<path d="M7.5 11.6667H10" stroke="#222222" stroke-linecap="round" stroke-linejoin="round"/>
<path d="M15.8333 6.66666L15.8333 1.66666M13.3333 4.16666H18.3333" stroke="#222222" stroke-linecap="round" stroke-linejoin="round"/>
</svg>
