<svg width="20" height="20" viewBox="0 0 20 20" fill="none" xmlns="http://www.w3.org/2000/svg">
<path d="M17.0832 10.4165H15.0675C14.4932 10.4165 14.2061 10.4165 13.9762 10.5473C13.9139 10.5827 13.8556 10.6247 13.8023 10.6726C13.6056 10.8493 13.5148 11.1217 13.3332 11.6665V11.6665C13.1516 12.2113 13.0608 12.4837 12.864 12.6604C12.8107 12.7083 12.7524 12.7503 12.6902 12.7857C12.4602 12.9165 12.1731 12.9165 11.5989 12.9165H8.40079C7.82655 12.9165 7.53943 12.9165 7.30951 12.7857C7.24724 12.7503 7.18895 12.7083 7.13566 12.6604C6.93889 12.4837 6.84809 12.2113 6.6665 11.6665V11.6665C6.48491 11.1217 6.39412 10.8493 6.19735 10.6726C6.14405 10.6247 6.08577 10.5827 6.02349 10.5473C5.79358 10.4165 5.50646 10.4165 4.93222 10.4165H2.9165" stroke="#222222"/>
<path d="M7.9165 7.91667L9.99984 10M9.99984 10L12.0832 7.91667M9.99984 10L9.99984 4.16667" stroke="#222222"/>
<path d="M5.4165 7.0835L4.19897 7.89519C3.73008 8.20778 3.49564 8.36407 3.32592 8.57057C3.17567 8.75338 3.06294 8.96402 2.99418 9.19044C2.9165 9.4462 2.9165 9.72796 2.9165 10.2915V12.5368C2.9165 13.5449 2.9165 14.049 3.11269 14.434C3.28526 14.7727 3.56063 15.0481 3.89932 15.2206C4.28436 15.4168 4.78841 15.4168 5.79651 15.4168H14.2032C15.2113 15.4168 15.7153 15.4168 16.1004 15.2206C16.439 15.0481 16.7144 14.7727 16.887 14.434C17.0832 14.049 17.0832 13.5449 17.0832 12.5368V10.2915C17.0832 9.72796 17.0832 9.4462 17.0055 9.19044C16.9367 8.96402 16.824 8.75338 16.6738 8.57057C16.504 8.36407 16.2696 8.20778 15.8007 7.89519L14.5832 7.0835" stroke="#222222" stroke-linecap="round"/>
</svg>
