<svg width="12" height="12" viewBox="0 0 12 12" fill="none" xmlns="http://www.w3.org/2000/svg">
<path fill-rule="evenodd" clip-rule="evenodd" d="M6.39644 8.79554C7.31282 8.28352 9.5 6.81857 9.5 4.5C9.5 2.567 7.933 1 6 1C4.067 1 2.5 2.567 2.5 4.5C2.5 6.81857 4.68718 8.28352 5.60356 8.79554C5.85223 8.93449 6.14777 8.93449 6.39644 8.79554ZM6 6C6.82843 6 7.5 5.32843 7.5 4.5C7.5 3.67157 6.82843 3 6 3C5.17157 3 4.5 3.67157 4.5 4.5C4.5 5.32843 5.17157 6 6 6Z" fill="#747483"/>
<path d="M9.03109 8.25C9.33828 8.47803 9.5 8.73669 9.5 9C9.5 9.2633 9.33828 9.52197 9.03109 9.75C8.7239 9.97803 8.28207 10.1674 7.75 10.299C7.21793 10.4307 6.61438 10.5 6 10.5C5.38562 10.5 4.78207 10.4307 4.25 10.299C3.71793 10.1674 3.2761 9.97803 2.96891 9.75C2.66172 9.52197 2.5 9.26331 2.5 9C2.5 8.7367 2.66172 8.47803 2.96891 8.25" stroke="#747483" stroke-linecap="round"/>
</svg>
